<svg width="141" height="40" viewBox="0 0 141 40" fill="none" xmlns="http://www.w3.org/2000/svg">
<path d="M34.963 34.2631C34.983 34.6049 34.9207 34.9466 34.7815 35.2594C34.6423 35.5722 34.4302 35.8472 34.1629 36.0612C33.6004 36.4897 32.9073 36.711 32.2005 36.6875V37.452H31.367V36.6875C30.6594 36.7088 29.9664 36.4832 29.407 36.0493C29.141 35.8367 28.9294 35.5638 28.7899 35.2532C28.6503 34.9426 28.5867 34.6031 28.6045 34.2631C28.5892 33.9197 28.6543 33.5776 28.7944 33.2638C28.9346 32.95 29.146 32.6732 29.4118 32.4554C29.9642 32.0095 30.6573 31.7748 31.367 31.7934V31.1289H32.2005V31.7934C32.9121 31.7711 33.6082 32.0043 34.1629 32.4507C34.4275 32.6702 34.6375 32.9481 34.7764 33.2626C34.9152 33.5772 34.9791 33.9196 34.963 34.2631ZM31.367 36.004V32.4769C30.8616 32.4824 30.3723 32.6559 29.9762 32.9699C29.7963 33.1316 29.6553 33.332 29.5638 33.5559C29.4722 33.7799 29.4325 34.0216 29.4475 34.2631C29.4309 34.4985 29.4692 34.7347 29.5593 34.9528C29.6494 35.171 29.7888 35.3654 29.9667 35.5205C30.372 35.8232 30.8614 35.9921 31.367 36.004ZM34.12 34.2631C34.135 34.0216 34.0953 33.7799 34.0037 33.5559C33.9122 33.332 33.7712 33.1316 33.5913 32.9699C33.195 32.6562 32.7059 32.4828 32.2005 32.4769V36.004C32.7053 35.9937 33.1945 35.8273 33.6008 35.5277C33.7797 35.3718 33.9198 35.1763 34.0099 34.9567C34.1 34.7372 34.1377 34.4997 34.12 34.2631Z" fill="white"/>
<path d="M38.7286 31.1289L41.2006 37.452H40.267L39.5669 35.5158H36.9139L36.1995 37.452H35.3112L37.7974 31.1289H38.7286ZM39.3144 34.8489L38.2404 31.9267L37.152 34.8489H39.3144Z" fill="white"/>
<path d="M42.7888 33.6867H44.9012C45.1605 33.6706 45.4204 33.7063 45.6658 33.7918C45.9111 33.8772 46.137 34.0107 46.3301 34.1845C46.5057 34.3695 46.6413 34.5887 46.7286 34.8284C46.8158 35.068 46.8529 35.3231 46.8374 35.5777C46.8523 35.8307 46.8148 36.084 46.7271 36.3217C46.6394 36.5594 46.5034 36.7764 46.3277 36.959C45.9352 37.3055 45.4215 37.4827 44.8988 37.452H41.9529V31.1289H46.2873V31.8434H42.7888V33.6867ZM46.011 35.5777C46.011 34.8013 45.5514 34.4131 44.6274 34.4131H42.7888V36.7232H44.6274C45.5514 36.7232 46.011 36.3422 46.011 35.5777Z" fill="white"/>
<path d="M48.1973 31.1286H50.8003C51.3469 31.0988 51.8877 31.2531 52.3364 31.5668C52.715 31.8598 52.9032 32.3218 52.9032 32.9482C52.9032 34.2183 52.1839 34.8534 50.7455 34.8534H49.0308V37.447H48.1973V31.1286ZM49.0308 31.8431V34.1509H50.6384C51.0064 34.1724 51.3727 34.0845 51.691 33.8984C51.9434 33.7301 52.0696 33.43 52.0696 32.9982C52.0765 32.7901 52.0358 32.5832 51.9506 32.3932C51.8757 32.2391 51.7517 32.1143 51.5981 32.0384C51.4482 31.9623 51.2876 31.9093 51.1218 31.8812C50.9246 31.8533 50.7256 31.8406 50.5264 31.8431H49.0308Z" fill="white"/>
<path d="M54.0413 37.452V31.1289H54.8748V36.4827H54.8938L57.9898 31.1289H59.0614V37.452H58.2279V32.0792H58.2089L55.101 37.452H54.0413Z" fill="white"/>
<path d="M65.7107 31.1289L63.0482 33.6677L65.8178 37.452H64.7533L62.4599 34.2369L61.4121 35.2324V37.452H60.5786V31.1289H61.4121V34.2631L64.6199 31.1289H65.7107Z" fill="white"/>
<path d="M69.2826 31.1289L71.7498 37.452H70.8187L70.1161 35.5158H67.4608L66.7463 37.452H65.858L68.3491 31.1289H69.2826ZM69.8685 34.8489L68.792 31.9267L67.7013 34.8489H69.8685Z" fill="white"/>
<path d="M81.4313 39.0239H80.624V37.452H76.0491V39.0239H75.2418V36.7232H75.8634C76.1568 36.1377 76.3576 35.5103 76.4588 34.8632C76.6172 34.0359 76.697 33.1954 76.6969 32.353V31.1289H80.7454V36.7232H81.4456L81.4313 39.0239ZM79.8953 36.7232V31.8553H77.5138V32.7174C77.5145 33.4788 77.4443 34.2387 77.3042 34.9871C77.2112 35.5856 77.0398 36.1694 76.7945 36.7232H79.8953Z" fill="white"/>
<path d="M82.3992 31.1308H85.0998C85.6081 31.1112 86.1106 31.2439 86.543 31.5119C86.7331 31.644 86.8857 31.8231 86.9859 32.0318C87.086 32.2405 87.1304 32.4717 87.1145 32.7026C87.1195 33.0023 87.0313 33.2961 86.8621 33.5433C86.698 33.7853 86.4598 33.9675 86.1834 34.0625C86.5405 34.1301 86.8606 34.3257 87.0836 34.6127C87.3019 34.9174 87.4133 35.2859 87.4003 35.6606C87.4003 36.8514 86.6009 37.4468 85.0021 37.4468H82.3992V31.1308ZM83.216 31.8453V33.8434H84.7164C84.8878 33.8434 85.0355 33.8434 85.1569 33.8291C85.2957 33.8182 85.4334 33.7967 85.5689 33.7648C85.7017 33.7392 85.8276 33.6857 85.9381 33.6077C86.0393 33.5281 86.1208 33.4262 86.1762 33.31C86.2486 33.1619 86.2838 32.9984 86.2786 32.8336C86.2844 32.6701 86.2535 32.5073 86.1881 32.3573C86.1419 32.2441 86.0692 32.1437 85.9762 32.0644C85.8754 31.9869 85.758 31.9339 85.6332 31.9096C85.5053 31.8758 85.3746 31.8535 85.2427 31.8429C85.1284 31.8429 84.9783 31.8286 84.795 31.8286L83.216 31.8453ZM83.216 34.5007V36.7561H84.8831C85.0903 36.7561 85.2593 36.7561 85.3903 36.7442C85.5383 36.7311 85.6848 36.7056 85.8285 36.668C85.9698 36.6375 86.1025 36.5757 86.2167 36.487C86.3216 36.3908 86.403 36.2718 86.4549 36.1393C86.5249 35.9662 86.5581 35.7805 86.5525 35.5939C86.5561 35.4373 86.5335 35.2811 86.4858 35.1319C86.4468 35.0071 86.3693 34.8979 86.2643 34.8199C86.172 34.75 86.074 34.6879 85.9714 34.6341C85.8467 34.5777 85.7127 34.5446 85.5761 34.5365C85.4046 34.5174 85.2713 34.5079 85.176 34.5055H84.7426L83.216 34.5007Z" fill="white"/>
<path d="M92.9856 31.1289V31.8434H89.4419V33.8249H92.7546V34.5322H89.4419V36.7161H93.0308V37.4449H88.6084V31.1289H92.9856Z" fill="white"/>
<path d="M94.1956 31.1285H96.7962C97.3435 31.0991 97.885 31.2534 98.3347 31.5668C98.7133 31.8597 98.9014 32.3217 98.9014 32.9481C98.9014 34.2183 98.1822 34.8533 96.7438 34.8533H95.022V37.4469H94.1885L94.1956 31.1285ZM95.0291 31.843V34.1508H96.6366C97.0047 34.172 97.3709 34.0842 97.6893 33.8983C97.9417 33.73 98.0679 33.4299 98.0679 32.9981C98.0753 32.7897 98.0337 32.5825 97.9465 32.3932C97.8733 32.2387 97.7499 32.1135 97.5964 32.0383C97.4463 31.9625 97.2858 31.9095 97.1201 31.8811C96.9229 31.8532 96.7239 31.8405 96.5247 31.843H95.0291Z" fill="white"/>
<path d="M104.417 31.1289V31.8434H100.874V33.8249H104.186V34.5322H100.874V36.7161H104.462V37.4449H100.04V31.1289H104.417Z" fill="white"/>
<path d="M105.591 37.4542V31.1311H106.425V36.4849H106.453L109.549 31.1311H110.607V37.4542H109.764V32.0813H109.747L106.639 37.4542H105.591ZM109.428 29.4688C109.386 29.8056 109.234 30.1193 108.997 30.3618C108.876 30.4747 108.734 30.5624 108.579 30.6196C108.424 30.6769 108.259 30.7026 108.094 30.6953C107.758 30.7044 107.431 30.5813 107.184 30.3523C106.936 30.1204 106.78 29.8067 106.744 29.4688H107.199C107.238 29.6717 107.349 29.8535 107.512 29.9809C107.675 30.1082 107.878 30.1725 108.085 30.1618C108.29 30.1677 108.491 30.1017 108.653 29.9752C108.816 29.8487 108.929 29.6696 108.973 29.4688H109.428Z" fill="white"/>
<path d="M16.7303 4.02958e-06H0.000366211V23.7611H16.7303C18.1068 23.7619 19.4536 23.3611 20.6056 22.6078C21.7576 21.8544 22.6648 20.7813 23.2159 19.52C23.7671 18.2586 23.9382 16.8639 23.7084 15.5067C23.4785 14.1495 22.8577 12.8889 21.922 11.8794C22.858 10.8701 23.4791 9.60961 23.7091 8.25246C23.9391 6.8953 23.768 5.50052 23.2168 4.23922C22.6656 2.97792 21.7582 1.90493 20.606 1.1519C19.4537 0.398871 18.1068 -0.0014652 16.7303 4.02958e-06ZM16.7303 19.2123H4.54901V14.1538H16.7303C17.4011 14.1538 18.0444 14.4202 18.5187 14.8946C18.993 15.3689 19.2595 16.0122 19.2595 16.683C19.2595 17.3538 18.993 17.9971 18.5187 18.4715C18.0444 18.9458 17.4011 19.2123 16.7303 19.2123ZM16.7303 9.60732H4.54901V4.54883H16.7303C17.4011 4.54883 18.0444 4.81531 18.5187 5.28963C18.993 5.76396 19.2595 6.40728 19.2595 7.07808C19.2595 7.74887 18.993 8.3922 18.5187 8.86652C18.0444 9.34085 17.4011 9.60732 16.7303 9.60732ZM75.4579 0.0476357H63.9101C62.2977 0.0495277 60.752 0.691051 59.6121 1.83141C58.4723 2.97177 57.8314 4.51781 57.8301 6.1302V17.6785C57.8314 19.2909 58.4723 20.8369 59.6121 21.9773C60.752 23.1177 62.2977 23.7592 63.9101 23.7611H75.4579C77.0705 23.7592 78.6164 23.1177 79.7567 21.9774C80.8969 20.8372 81.5384 19.2911 81.5403 17.6785V6.1302C81.5384 4.51759 80.8969 2.97156 79.7567 1.83127C78.6164 0.690974 77.0705 0.0495266 75.4579 0.0476357ZM76.994 17.6714C76.9933 18.0784 76.8312 18.4685 76.5432 18.756C76.2552 19.0436 75.8649 19.2051 75.4579 19.2051H63.9101C63.5035 19.2045 63.1138 19.0427 62.8263 18.7552C62.5388 18.4677 62.377 18.0779 62.3764 17.6714V6.1302C62.377 5.72362 62.5388 5.33388 62.8263 5.04638C63.1138 4.75889 63.5035 4.59709 63.9101 4.59646H75.4579C75.8649 4.59646 76.2552 4.75798 76.5432 5.04554C76.8312 5.33311 76.9933 5.72321 76.994 6.1302V17.6714ZM105.836 0.0476357H110.382V23.7873H106.572L91.2424 7.8116V23.7682H86.6867V0.0476357H90.5685L105.827 15.9733L105.836 0.0476357ZM45.6202 0.0142935H28.8879V23.6325H33.4365V16.4329H41.9837L47.4182 23.7825L52.6099 23.8016L47.0515 16.2829C48.6452 15.951 50.0761 15.0807 51.1039 13.8182C52.1317 12.5558 52.6937 10.9781 52.6956 9.35011V7.09237C52.6937 5.21614 51.9478 3.41726 50.6213 2.09034C49.2949 0.763424 47.4964 0.0168153 45.6202 0.0142935ZM48.1494 9.35011C48.1487 10.0207 47.8821 10.6637 47.4079 11.1379C46.9337 11.612 46.2908 11.8787 45.6202 11.8794H33.4365V4.56312H45.6202C46.2908 4.56375 46.9337 4.83043 47.4079 5.30462C47.8821 5.77881 48.1487 6.42176 48.1494 7.09237V9.35011ZM140.661 23.4015L130.197 0.209584L130.125 0.0523989H125.541L125.469 0.209584L115.038 23.3919L114.869 23.7682H119.897L119.966 23.6063L122.171 18.4049H133.409L135.657 23.6087L135.729 23.7682H140.82L140.661 23.4015ZM123.866 14.492L127.801 5.30379L131.764 14.492H123.866Z" fill="url(#paint0_linear_362_7172)"/>
<defs>
<linearGradient id="paint0_linear_362_7172" x1="0.000366211" y1="11.8984" x2="140.83" y2="11.8984" gradientUnits="userSpaceOnUse">
<stop stop-color="#FF6040"/>
<stop offset="1" stop-color="#FFCC00"/>
</linearGradient>
</defs>
</svg>
