<svg width="16" height="16" viewBox="0 0 16 16" fill="none" xmlns="http://www.w3.org/2000/svg">
<path fill-rule="evenodd" clip-rule="evenodd" d="M7.24967 2.16536C4.44223 2.16536 2.16634 4.44125 2.16634 7.2487C2.16634 10.0561 4.44223 12.332 7.24967 12.332C8.65227 12.332 9.92112 11.7649 10.8415 10.8457C11.7637 9.92491 12.333 8.65392 12.333 7.2487C12.333 4.44125 10.0571 2.16536 7.24967 2.16536ZM0.833008 7.2487C0.833008 3.70487 3.70585 0.832031 7.24967 0.832031C10.7935 0.832031 13.6663 3.70487 13.6663 7.2487C13.6663 8.7815 13.1282 10.1896 12.2317 11.2929L14.9706 14.0269C15.2312 14.287 15.2316 14.7091 14.9715 14.9697C14.7114 15.2303 14.2893 15.2306 14.0287 14.9705L11.2883 12.2352C10.1858 13.1291 8.7799 13.6654 7.24967 13.6654C3.70585 13.6654 0.833008 10.7925 0.833008 7.2487Z" fill="#424551"/>
</svg>
