<svg width="24" height="24" viewBox="0 0 24 24" fill="none" xmlns="http://www.w3.org/2000/svg">
<path d="M23.6488 20.7454L18.9659 16.0624C18.7317 15.8751 18.4507 15.7346 18.1698 15.7346H17.4205C18.6849 14.0956 19.481 12.0351 19.481 9.74049C19.481 4.40195 15.079 0 9.74049 0C4.35512 0 0 4.40195 0 9.74049C0 15.1259 4.35512 19.481 9.74049 19.481C11.9883 19.481 14.0488 18.7317 15.7346 17.4205V18.2166C15.7346 18.4976 15.8283 18.7785 16.0624 19.0127L20.6985 23.6488C21.1668 24.1171 21.8693 24.1171 22.2907 23.6488L23.602 22.3376C24.0702 21.9161 24.0702 21.2137 23.6488 20.7454ZM9.74049 15.7346C6.41561 15.7346 3.74634 13.0654 3.74634 9.74049C3.74634 6.46244 6.41561 3.74634 9.74049 3.74634C13.0185 3.74634 15.7346 6.46244 15.7346 9.74049C15.7346 13.0654 13.0185 15.7346 9.74049 15.7346Z" fill="#074EE8"/>
</svg>
